<svg width="36" height="40" viewBox="0 0 36 40" fill="none" xmlns="http://www.w3.org/2000/svg">
<path d="M33.9359 30.4896C32.9657 32.4509 31.6602 34.1631 30.0332 35.6143C28.3349 37.1308 26.4024 38.2696 24.2358 39.021C22.847 39.5014 21.4303 39.8158 19.9721 39.9384C18.1586 40.0926 16.367 39.9581 14.5933 39.5271C13.0536 39.1534 11.6013 38.5801 10.1966 37.8544C8.97638 37.2237 7.88316 36.4289 6.84152 35.5511C6.51018 35.2703 6.17289 34.9955 5.85941 34.693C3.92296 32.8266 2.44682 30.6339 1.429 28.1605C0.605609 26.1576 0.143322 24.0599 0.028246 21.8811C-0.108654 19.3088 0.252445 16.8176 1.10361 14.3976C1.93692 12.023 3.15712 9.85607 4.76619 7.91452C6.48638 5.84049 8.49822 4.11049 10.8513 2.77394C12.9723 1.56985 15.2341 0.749338 17.6229 0.272846C18.2062 0.156195 18.7995 0.0830401 19.4165 0L16.7023 5.01207C16.6726 5.02195 16.6408 5.03381 16.6071 5.04172C14.3095 5.71 12.2064 6.75393 10.3236 8.2447C7.77602 10.2614 5.92489 12.7724 4.79397 15.8112C4.3039 17.13 4.00233 18.4863 3.87535 19.8901C3.73051 21.5094 3.85154 23.0931 4.2047 24.6768C4.50628 26.0291 5.00031 27.2945 5.62529 28.5263C6.41892 30.0882 7.48039 31.4445 8.73829 32.6427C10.6886 34.5012 12.9802 35.7903 15.6032 36.4349C18.5971 37.1703 21.5276 36.9133 24.3787 35.731C25.8707 35.1121 27.2099 34.2659 28.4103 33.1904C30.7594 31.0827 32.2475 28.4847 32.8129 25.3925C33.1205 23.706 33.049 22.0155 32.6264 20.3369C32.1741 18.5338 31.3566 16.9303 30.2376 15.4494C29.0115 13.8262 27.4242 12.6715 25.6187 11.8115C23.839 10.9633 21.9323 10.5758 19.9602 10.7478C16.7202 11.0305 14.0139 12.4105 11.9406 14.9235C9.9823 17.2961 9.13907 20.0245 9.55175 23.0911C9.81762 25.0603 10.645 26.7884 11.9068 28.3246C13.0318 29.6928 14.4683 30.6359 16.0952 31.2429C18.6626 32.1998 21.2399 32.0752 23.6485 30.7624C26.3052 29.3132 27.9976 27.0948 28.4301 24.0401C28.7595 21.7071 28.1067 19.6331 26.6722 17.7884C25.8191 16.6911 24.7477 15.8547 23.468 15.313C22.093 14.7317 20.6665 14.5558 19.1765 14.8326C17.5198 15.141 16.1071 15.8745 14.9544 17.0865C13.9048 18.1897 13.252 19.5065 13.0576 21.023C12.8552 22.6087 13.2024 24.0599 14.0298 25.4558C14.2004 25.7424 14.2778 25.8789 15.4643 27.336C14.7937 26.7804 14.3254 26.2466 13.9127 25.6337C13.3433 24.7855 12.8711 23.5597 12.7659 22.5217C12.6211 21.0962 12.8969 19.7636 13.5358 18.4982C14.6766 16.2383 16.5615 14.9116 18.984 14.3383C20.474 13.9844 21.9561 14.0931 23.4164 14.6269C24.6743 15.0876 25.7635 15.7836 26.6961 16.7168C28.2139 18.2372 29.1186 20.0839 29.3368 22.2172C29.5849 24.6511 28.9182 26.8635 27.456 28.8228C25.8687 30.9483 23.7676 32.3204 21.1625 32.8523C19.0594 33.2813 17.0039 33.0599 15.0119 32.2176C12.2541 31.055 10.262 29.0957 8.9486 26.4542C8.3256 25.2007 7.97641 23.8444 7.87324 22.4367C7.55777 18.2036 9.17875 14.7792 12.2699 11.9736C13.7738 10.6094 15.5337 9.68406 17.4781 9.13837C18.9959 8.71131 20.5534 8.55907 22.1406 8.69747C24.583 8.911 26.8151 9.70186 28.8388 11.0582C30.9241 12.456 32.5927 14.2592 33.7811 16.4696C34.8406 18.4408 35.4537 20.5623 35.5708 22.7965C35.7097 25.4953 35.1422 28.0636 33.9399 30.4915L33.9359 30.4896Z" fill="url(#paint0_linear_894_666)"/>
<defs>
<linearGradient id="paint0_linear_894_666" x1="-5.70481e-08" y1="20" x2="35.5913" y2="20" gradientUnits="userSpaceOnUse">
<stop stop-color="#31CA85"/>
<stop offset="1" stop-color="#1531B0"/>
</linearGradient>
</defs>
</svg>
