<svg width="31" height="30" viewBox="0 0 31 30" fill="none" xmlns="http://www.w3.org/2000/svg">
<path d="M15.9102 0C7.62674 0 0.910217 6.71652 0.910217 15C0.910217 23.2835 7.62674 30 15.9102 30C24.1937 30 30.9102 23.2835 30.9102 15C30.9102 6.71652 24.1937 0 15.9102 0ZM15.9102 27.4554C9.03299 27.4554 3.45486 21.8772 3.45486 15C3.45486 8.12277 9.03299 2.54464 15.9102 2.54464C22.7874 2.54464 28.3656 8.12277 28.3656 15C28.3656 21.8772 22.7874 27.4554 15.9102 27.4554Z" fill="white"/>
<path d="M22.0709 13.9286H16.9816V8.83928C16.9816 8.69195 16.8611 8.57142 16.7138 8.57142H15.1066C14.9593 8.57142 14.8388 8.69195 14.8388 8.83928V13.9286H9.7495C9.60218 13.9286 9.48164 14.0491 9.48164 14.1964V15.8036C9.48164 15.9509 9.60218 16.0714 9.7495 16.0714H14.8388V21.1607C14.8388 21.308 14.9593 21.4286 15.1066 21.4286H16.7138C16.8611 21.4286 16.9816 21.308 16.9816 21.1607V16.0714H22.0709C22.2183 16.0714 22.3388 15.9509 22.3388 15.8036V14.1964C22.3388 14.0491 22.2183 13.9286 22.0709 13.9286Z" fill="white"/>
</svg>
