<svg width="31" height="31" viewBox="0 0 31 31" fill="none" xmlns="http://www.w3.org/2000/svg">
<path d="M15.9102 0.80571C7.62674 0.80571 0.910217 7.52223 0.910217 15.8057C0.910217 24.0892 7.62674 30.8057 15.9102 30.8057C24.1937 30.8057 30.9102 24.0892 30.9102 15.8057C30.9102 7.52223 24.1937 0.80571 15.9102 0.80571ZM15.9102 28.2611C9.03299 28.2611 3.45486 22.6829 3.45486 15.8057C3.45486 8.92848 9.03299 3.35035 15.9102 3.35035C22.7874 3.35035 28.3656 8.92848 28.3656 15.8057C28.3656 22.6829 22.7874 28.2611 15.9102 28.2611Z" fill="#31CA85"/>
<path d="M22.0709 14.7343H16.9816V9.64499C16.9816 9.49766 16.8611 9.37713 16.7138 9.37713H15.1066C14.9593 9.37713 14.8388 9.49766 14.8388 9.64499V14.7343H9.7495C9.60218 14.7343 9.48164 14.8548 9.48164 15.0021V16.6093C9.48164 16.7566 9.60218 16.8771 9.7495 16.8771H14.8388V21.9664C14.8388 22.1137 14.9593 22.2343 15.1066 22.2343H16.7138C16.8611 22.2343 16.9816 22.1137 16.9816 21.9664V16.8771H22.0709C22.2183 16.8771 22.3388 16.7566 22.3388 16.6093V15.0021C22.3388 14.8548 22.2183 14.7343 22.0709 14.7343Z" fill="#31CA85"/>
</svg>
