<svg width="31" height="32" viewBox="0 0 31 32" fill="none" xmlns="http://www.w3.org/2000/svg">
<path d="M30.2317 19.9199L27.915 17.9345C28.0247 17.2608 28.0812 16.573 28.0812 15.8852C28.0812 15.1974 28.0247 14.5096 27.915 13.836L30.2317 11.8505C30.4064 11.7006 30.5315 11.5009 30.5902 11.278C30.649 11.055 30.6387 10.8195 30.5606 10.6026L30.5288 10.5104C29.891 8.72358 28.936 7.0672 27.7099 5.62125L27.6462 5.5468C27.4975 5.37149 27.2992 5.24546 27.0776 5.18534C26.856 5.12521 26.6214 5.13381 26.4047 5.20999L23.5293 6.23461C22.4682 5.36244 21.2833 4.67463 20.003 4.19245L19.4477 1.17885C19.4058 0.952093 19.296 0.743482 19.133 0.580731C18.9701 0.41798 18.7615 0.308794 18.5351 0.267679L18.4397 0.249952C16.5969 -0.0833172 14.6587 -0.0833172 12.816 0.249952L12.7205 0.267679C12.4941 0.308794 12.2856 0.41798 12.1226 0.580731C11.9596 0.743482 11.8499 0.952093 11.808 1.17885L11.2491 4.20663C9.97899 4.68891 8.79618 5.37636 7.7476 6.2417L4.85088 5.20999C4.6343 5.1332 4.39954 5.1243 4.17779 5.18446C3.95604 5.24462 3.75781 5.371 3.60943 5.5468L3.54577 5.62125C2.3211 7.06822 1.36624 8.72433 0.726856 10.5104L0.695023 10.6026C0.535863 11.0457 0.666728 11.5421 1.02396 11.8505L3.36892 13.8573C3.25928 14.5238 3.20622 15.2045 3.20622 15.8817C3.20622 16.5624 3.25928 17.2431 3.36892 17.9061L1.02396 19.9128C0.849217 20.0628 0.724155 20.2625 0.665398 20.4854C0.606642 20.7083 0.616975 20.9439 0.695023 21.1608L0.726856 21.253C1.36703 23.0399 2.31492 24.6885 3.54577 26.1421L3.60943 26.2166C3.75817 26.3919 3.95641 26.5179 4.17803 26.578C4.39965 26.6382 4.63423 26.6296 4.85088 26.5534L7.7476 25.5217C8.8016 26.3903 9.97939 27.0781 11.2491 27.5567L11.808 30.5845C11.8499 30.8113 11.9596 31.0199 12.1226 31.1826C12.2856 31.3454 12.4941 31.4546 12.7205 31.4957L12.816 31.5134C14.6756 31.8485 16.58 31.8485 18.4397 31.5134L18.5351 31.4957C18.7615 31.4546 18.9701 31.3454 19.133 31.1826C19.296 31.0199 19.4058 30.8113 19.4477 30.5845L20.003 27.5709C21.2828 27.09 22.4743 26.3999 23.5293 25.5288L26.4047 26.5534C26.6213 26.6302 26.8561 26.6391 27.0778 26.5789C27.2996 26.5187 27.4978 26.3924 27.6462 26.2166L27.7099 26.1421C28.9407 24.6849 29.8886 23.0399 30.5288 21.253L30.5606 21.1608C30.7198 20.7247 30.5889 20.2284 30.2317 19.9199ZM25.4038 14.2543C25.4922 14.7897 25.5382 15.3392 25.5382 15.8888C25.5382 16.4383 25.4922 16.9879 25.4038 17.5232L25.1704 18.9449L27.8124 21.2104C27.4119 22.1354 26.9063 23.011 26.3057 23.8199L23.0235 22.6534L21.9129 23.5681C21.0676 24.263 20.1268 24.809 19.1081 25.1919L17.7606 25.6989L17.1275 29.138C16.1285 29.2514 15.12 29.2514 14.1211 29.138L13.488 25.6918L12.151 25.1778C11.143 24.7949 10.2057 24.2489 9.3675 23.5575L8.25692 22.6392L4.95345 23.8163C4.35218 23.0044 3.84994 22.1287 3.44673 21.2069L6.11709 18.9201L5.88719 17.5019C5.80231 16.9737 5.75633 16.4277 5.75633 15.8888C5.75633 15.3463 5.79877 14.8039 5.88719 14.2756L6.11709 12.8574L3.44673 10.5707C3.8464 9.6453 4.35218 8.77313 4.95345 7.96123L8.25692 9.13831L9.3675 8.22004C10.2057 7.52869 11.143 6.98269 12.151 6.59979L13.4915 6.09279L14.1246 2.64665C15.1185 2.5332 16.1336 2.5332 17.131 2.64665L17.7641 6.0857L19.1117 6.5927C20.1268 6.9756 21.0711 7.5216 21.9164 8.2165L23.027 9.13121L26.3093 7.96477C26.9105 8.77667 27.4128 9.65239 27.816 10.5742L25.1739 12.8397L25.4038 14.2543ZM15.6314 9.2943C12.1935 9.2943 9.40641 12.0881 9.40641 15.5342C9.40641 18.9804 12.1935 21.7742 15.6314 21.7742C19.0692 21.7742 21.8563 18.9804 21.8563 15.5342C21.8563 12.0881 19.0692 9.2943 15.6314 9.2943ZM18.4326 18.3422C18.0652 18.7116 17.6285 19.0044 17.1478 19.204C16.6671 19.4036 16.1517 19.5059 15.6314 19.5051C14.5738 19.5051 13.58 19.0903 12.8301 18.3422C12.4617 17.9739 12.1695 17.5362 11.9704 17.0543C11.7713 16.5724 11.6692 16.0558 11.67 15.5342C11.67 14.4742 12.0838 13.4779 12.8301 12.7263C13.58 11.9746 14.5738 11.5634 15.6314 11.5634C16.6889 11.5634 17.6828 11.9746 18.4326 12.7263C18.801 13.0946 19.0932 13.5322 19.2923 14.0141C19.4914 14.496 19.5935 15.0126 19.5927 15.5342C19.5927 16.5943 19.1789 17.5906 18.4326 18.3422Z" fill="white"/>
</svg>
