<svg width="30" height="32" viewBox="0 0 30 32" fill="none" xmlns="http://www.w3.org/2000/svg">
<path d="M29.6039 19.9199L27.2872 17.9345C27.3968 17.2608 27.4534 16.573 27.4534 15.8852C27.4534 15.1974 27.3968 14.5096 27.2872 13.836L29.6039 11.8505C29.7786 11.7006 29.9037 11.5009 29.9624 11.278C30.0212 11.055 30.0108 10.8195 29.9328 10.6026L29.901 10.5104C29.2632 8.72359 28.3082 7.0672 27.0821 5.62125L27.0184 5.5468C26.8696 5.37149 26.6714 5.24546 26.4498 5.18534C26.2282 5.12521 25.9936 5.13381 25.7769 5.20999L22.9014 6.23461C21.8404 5.36244 20.6555 4.67463 19.3751 4.19245L18.8199 1.17885C18.778 0.952093 18.6682 0.743482 18.5052 0.580731C18.3422 0.41798 18.1337 0.308794 17.9073 0.267679L17.8118 0.249952C15.9691 -0.0833172 14.0309 -0.0833172 12.1882 0.249952L12.0927 0.267679C11.8663 0.308794 11.6578 0.41798 11.4948 0.580731C11.3318 0.743482 11.222 0.952093 11.1801 1.17885L10.6213 4.20663C9.35118 4.68891 8.16836 5.37636 7.11979 6.2417L4.22307 5.20999C4.00649 5.1332 3.77172 5.1243 3.54998 5.18446C3.32823 5.24462 3.12999 5.371 2.98161 5.5468L2.91795 5.62125C1.69329 7.06822 0.738427 8.72433 0.0990404 10.5104L0.0672082 10.6026C-0.0919523 11.0457 0.0389131 11.5421 0.39614 11.8505L2.7411 13.8573C2.63146 14.5238 2.57841 15.2045 2.57841 15.8817C2.57841 16.5624 2.63146 17.2431 2.7411 17.9061L0.39614 19.9128C0.221402 20.0628 0.0963398 20.2625 0.0375831 20.4854C-0.0211735 20.7083 -0.0108406 20.9439 0.0672082 21.1608L0.0990404 21.253C0.739219 23.0399 1.68711 24.6885 2.91795 26.1421L2.98161 26.2166C3.13036 26.3919 3.3286 26.5179 3.55021 26.578C3.77183 26.6382 4.00642 26.6296 4.22307 26.5534L7.11979 25.5217C8.17378 26.3903 9.35157 27.0781 10.6213 27.5567L11.1801 30.5845C11.222 30.8113 11.3318 31.0199 11.4948 31.1826C11.6578 31.3454 11.8663 31.4546 12.0927 31.4957L12.1882 31.5134C14.0478 31.8485 15.9522 31.8485 17.8118 31.5134L17.9073 31.4957C18.1337 31.4546 18.3422 31.3454 18.5052 31.1826C18.6682 31.0199 18.778 30.8113 18.8199 30.5845L19.3751 27.5709C20.655 27.09 21.8465 26.4 22.9014 25.5288L25.7769 26.5534C25.9935 26.6302 26.2283 26.6391 26.45 26.5789C26.6718 26.5187 26.87 26.3924 27.0184 26.2166L27.0821 26.1421C28.3129 24.6849 29.2608 23.0399 29.901 21.253L29.9328 21.1608C30.092 20.7247 29.9611 20.2284 29.6039 19.9199ZM24.776 14.2543C24.8644 14.7897 24.9104 15.3392 24.9104 15.8888C24.9104 16.4383 24.8644 16.9879 24.776 17.5232L24.5426 18.9449L27.1846 21.2104C26.7841 22.1354 26.2785 23.011 25.6779 23.8199L22.3957 22.6534L21.2851 23.5681C20.4398 24.263 19.4989 24.809 18.4803 25.1919L17.1328 25.6989L16.4996 29.138C15.5007 29.2514 14.4922 29.2514 13.4933 29.138L12.8602 25.6918L11.5232 25.1778C10.5152 24.7949 9.57793 24.2489 8.73969 23.5575L7.6291 22.6392L4.32564 23.8163C3.72436 23.0044 3.22212 22.1287 2.81892 21.2069L5.48928 18.9201L5.25938 17.5019C5.17449 16.9737 5.12851 16.4277 5.12851 15.8888C5.12851 15.3463 5.17096 14.8039 5.25938 14.2756L5.48928 12.8574L2.81892 10.5707C3.21859 9.6453 3.72436 8.77313 4.32564 7.96123L7.6291 9.13831L8.73969 8.22004C9.57793 7.52869 10.5152 6.98269 11.5232 6.59979L12.8637 6.09279L13.4968 2.64665C14.4907 2.5332 15.5058 2.5332 16.5032 2.64665L17.1363 6.0857L18.4838 6.5927C19.4989 6.9756 20.4433 7.5216 21.2886 8.2165L22.3992 9.13121L25.6814 7.96477C26.2827 8.77667 26.785 9.65239 27.1882 10.5742L24.5461 12.8397L24.776 14.2543ZM15.0035 9.2943C11.5657 9.2943 8.77859 12.0881 8.77859 15.5342C8.77859 18.9804 11.5657 21.7742 15.0035 21.7742C18.4414 21.7742 21.2285 18.9804 21.2285 15.5342C21.2285 12.0881 18.4414 9.2943 15.0035 9.2943ZM17.8048 18.3422C17.4374 18.7116 17.0007 19.0044 16.52 19.204C16.0392 19.4036 15.5239 19.5059 15.0035 19.5051C13.946 19.5051 12.9521 19.0903 12.2023 18.3422C11.8338 17.9739 11.5417 17.5362 11.3426 17.0543C11.1435 16.5724 11.0414 16.0558 11.0422 15.5342C11.0422 14.4742 11.456 13.4779 12.2023 12.7263C12.9521 11.9746 13.946 11.5634 15.0035 11.5634C16.0611 11.5634 17.0549 11.9746 17.8048 12.7263C18.1732 13.0946 18.4654 13.5322 18.6645 14.0141C18.8636 14.496 18.9657 15.0126 18.9649 15.5342C18.9649 16.5943 18.551 17.5906 17.8048 18.3422Z" fill="#31CA85"/>
</svg>
